<svg xmlns="http://www.w3.org/2000/svg" xmlns:xlink="http://www.w3.org/1999/xlink" width="400" zoomAndPan="magnify" viewBox="0 0 300 225" height="300" preserveAspectRatio="xMidYMid meet" version="1.0"><defs><g/></defs><path stroke-linecap="butt" transform="matrix(0.952562, 0, 0, 0.952562, -33.79208, -47.530404)" fill="none" stroke-linejoin="miter" d="M 129.657625 227.362927 C 126.294983 235.02319 122.485356 240.57565 118.224642 244.012106 C 114.004936 247.452663 108.690321 249.170891 102.280798 249.170891 C 98.606496 249.170891 95.165939 248.506564 91.963227 247.177911 C 88.760516 245.81235 85.984286 243.934191 83.638638 241.551636 C 81.333998 239.128073 79.496847 236.314936 78.127185 233.108124 C 76.798532 229.905412 76.134205 226.464855 76.134205 222.790554 C 76.134205 218.296096 77.249618 213.645808 79.476343 208.83969 L 128.956391 103.904753 C 134.385828 92.373351 142.710418 86.611751 153.926059 86.611751 C 165.301631 86.611751 173.782051 92.549684 179.371418 104.433754 L 229.08111 210.303669 C 231.152006 214.293731 232.189504 218.533941 232.189504 223.028399 C 232.189504 226.6986 231.467766 230.10225 230.020189 233.227047 C 228.572613 236.351843 226.657547 239.128073 224.274992 241.551636 C 221.892437 243.934191 219.095703 245.81235 215.892992 247.177911 C 212.686179 248.506564 209.229219 249.170891 205.518011 249.170891 C 199.457053 249.170891 194.376183 247.587989 190.2754 244.422184 C 186.211524 241.219473 182.340385 235.531687 178.666083 227.362927 Z M 162.545905 189.668529 L 154.397649 169.738724 L 145.252903 189.668529 Z M 97.47468 211.476493 L 139.741451 120.496521 C 140.561607 119.048944 141.0496 117.974539 141.20543 117.269205 C 141.36126 116.526963 141.439175 115.924148 141.439175 115.452558 C 141.439175 114.476571 141.070104 113.635911 140.327863 112.930576 C 139.622528 112.229342 138.626038 111.876675 137.338392 111.876675 C 136.399313 111.876675 135.558652 112.188334 134.81641 112.815754 C 134.115176 113.439073 133.352431 114.710316 132.532274 116.625382 L 91.024148 205.497552 C 88.760516 210.61943 87.214521 214.310135 86.394364 216.577868 C 85.611115 218.804593 85.22154 220.875488 85.22154 222.790554 C 85.22154 224.861449 85.652122 226.952849 86.513287 229.064752 C 87.411358 231.135647 88.543174 232.972798 89.912836 234.576204 C 91.278397 236.17961 92.840795 237.467256 94.600031 238.443243 C 96.359267 239.382322 98.118503 239.849811 99.877739 239.849811 C 103.08045 239.849811 104.683856 238.328421 104.683856 235.277438 C 104.683856 233.362373 103.412614 231.996812 100.874229 231.176655 C 98.606496 230.549235 96.830857 229.47483 95.53911 227.949339 C 94.288371 226.427948 93.665052 224.54979 93.665052 222.323065 C 93.665052 220.563829 94.54262 217.672777 96.301856 213.645808 Z M 179.137673 185.801491 L 166.884534 157.485584 C 165.904447 155.217851 165.145802 153.733367 164.596297 153.032133 C 164.050893 152.326799 163.210232 151.974131 162.074315 151.974131 C 160.942499 151.974131 159.966513 152.38421 159.146356 153.208467 C 158.363106 153.987616 157.973532 154.926695 157.973532 156.021604 C 157.973532 156.530101 158.088354 157.231335 158.326199 158.129407 C 158.596851 158.990571 158.970022 159.810728 159.437512 160.593977 L 171.924396 188.909884 C 172.900382 191.173517 173.704136 192.621093 174.327455 193.244412 C 174.954875 193.871832 175.832442 194.183491 176.968359 194.183491 C 179.547752 194.183491 180.835398 192.990163 180.835398 190.607609 C 180.835398 189.631622 180.581149 188.672039 180.072652 187.73706 Z M 169.287593 218.218181 L 172.863475 218.218181 C 175.442868 218.218181 177.493259 218.296096 179.018751 218.456026 C 180.544242 218.611856 181.774477 218.944019 182.713556 219.452516 C 183.689543 219.920006 184.530203 220.641744 185.231437 221.61773 C 185.973679 222.556809 186.736424 223.828052 187.519674 225.431458 C 189.43474 229.10576 190.820804 231.586733 191.681969 232.874379 C 192.58004 234.166126 193.597034 235.355353 194.728851 236.450262 C 197.308243 238.873825 200.359226 240.087657 203.873597 240.087657 C 207.236239 240.087657 208.91756 238.562165 208.91756 235.515284 C 208.91756 233.284458 207.547898 231.918897 204.812676 231.4104 C 202.585951 231.09874 201.023552 230.590243 200.12138 229.884909 C 199.264317 229.142667 198.189911 227.580268 196.898165 225.193613 C 195.138929 221.835071 193.617538 219.15726 192.325792 217.16428 C 191.038146 215.130291 189.590569 213.608901 187.987163 212.591906 C 186.424765 211.538005 184.509699 210.853174 182.241966 210.541515 C 180.015241 210.225755 177.222608 210.069925 173.859966 210.069925 L 132.999763 210.069925 C 129.989789 210.069925 127.996808 210.365181 127.020822 210.951593 C 126.081742 211.496997 125.614253 212.649317 125.614253 214.408553 C 125.614253 216.951039 127.11924 218.218181 130.125114 218.218181 Z M 143.846335 100.095125 C 142.554588 100.095125 141.422772 100.583118 140.442685 101.559105 C 139.507706 102.498184 139.036116 103.609496 139.036116 104.901243 C 139.036116 106.188889 139.507706 107.324806 140.442685 108.300792 C 141.422772 109.239871 142.554588 109.707361 143.846335 109.707361 C 145.13398 109.707361 146.249393 109.239871 147.184372 108.300792 C 148.164459 107.324806 148.652452 106.188889 148.652452 104.901243 C 148.652452 103.609496 148.164459 102.498184 147.184372 101.559105 C 146.249393 100.583118 145.13398 100.095125 143.846335 100.095125 Z M 248.998613 119.557442 C 248.998613 113.927066 249.310273 109.608942 249.937693 106.603068 C 250.602019 103.552085 251.889665 100.661033 253.804731 97.925811 C 256.031456 94.407339 259.061935 91.651613 262.892066 89.658632 C 266.763205 87.628745 270.941903 86.611751 275.436362 86.611751 C 280.049743 86.611751 284.388371 87.784574 288.452247 90.126122 C 292.557131 92.434862 295.739338 95.600667 298.007071 99.623535 C 299.41364 102.166021 300.389626 104.843832 300.939131 107.656969 C 301.525543 110.470106 301.816699 114.435563 301.816699 119.557442 L 301.816699 216.286712 C 301.816699 221.912986 301.447628 226.251615 300.705387 229.298497 C 300.000052 232.308471 298.769817 235.18312 297.010581 237.918342 C 294.628026 241.588543 291.499129 244.385277 287.63209 246.300343 C 283.801959 248.215409 279.738083 249.170891 275.436362 249.170891 C 270.630244 249.170891 266.176793 248.059579 262.07191 245.832854 C 258.008034 243.602028 254.842229 240.477231 252.574496 236.450262 C 251.167928 233.756048 250.208344 231.000321 249.703948 228.187184 C 249.232358 225.369946 248.998613 221.404489 248.998613 216.286712 Z M 266.057871 109.239871 C 267.349617 109.239871 268.46093 108.751878 269.400009 107.771791 C 270.375995 106.795805 270.863989 105.684492 270.863989 104.433754 C 270.863989 103.142007 270.375995 102.026594 269.400009 101.091615 C 268.46093 100.115629 267.349617 99.623535 266.057871 99.623535 C 264.770225 99.623535 263.634308 100.115629 262.658322 101.091615 C 261.719242 102.026594 261.251753 103.142007 261.251753 104.433754 C 261.251753 105.684492 261.719242 106.795805 262.658322 107.771791 C 263.634308 108.751878 264.770225 109.239871 266.057871 109.239871 Z M 274.206127 231.644144 C 271.003415 231.020825 268.871008 229.671668 267.817107 227.600772 C 266.800113 225.529877 266.291615 221.445497 266.291615 215.347633 L 266.291615 119.557442 C 266.291615 116.506459 266.037367 114.513478 265.52887 113.5785 C 265.06138 112.598413 263.945968 112.11042 262.190832 112.11042 C 260.431596 112.11042 259.316183 112.598413 258.848694 113.5785 C 258.377104 114.513478 258.14336 116.506459 258.14336 119.557442 L 258.14336 216.811612 C 258.14336 221.424993 258.299189 224.861449 258.610849 227.129182 C 258.926609 229.355907 259.648347 231.352989 260.780163 233.108124 C 262.227739 235.33895 264.105898 237.057178 266.410538 238.266909 C 268.715178 239.480741 271.159245 240.087657 273.738637 240.087657 C 277.412939 240.087657 279.25009 238.562165 279.25009 235.515284 C 279.25009 233.440287 278.290507 232.25106 276.375441 231.9353 Z M 274.206127 231.644144 " stroke="#ffe0b1" stroke-width="22.2111" stroke-opacity="1" stroke-miterlimit="4"/><g fill="#f4b557" fill-opacity="1"><g transform="translate(34.598893, 188.704966)"><g><path d="M 55.125 -19.671875 C 51.925781 -12.347656 48.304688 -7.046875 44.265625 -3.765625 C 40.222656 -0.492188 35.148438 1.140625 29.046875 1.140625 C 25.535156 1.140625 22.253906 0.492188 19.203125 -0.796875 C 16.160156 -2.097656 13.53125 -3.890625 11.3125 -6.171875 C 9.101562 -8.460938 7.351562 -11.128906 6.0625 -14.171875 C 4.769531 -17.222656 4.125 -20.503906 4.125 -24.015625 C 4.125 -28.285156 5.1875 -32.707031 7.3125 -37.28125 L 54.4375 -137.234375 C 59.625 -148.210938 67.554688 -153.703125 78.234375 -153.703125 C 89.054688 -153.703125 97.132812 -148.0625 102.46875 -136.78125 L 149.828125 -35.90625 C 151.804688 -32.09375 152.796875 -28.050781 152.796875 -23.78125 C 152.796875 -20.28125 152.109375 -17.039062 150.734375 -14.0625 C 149.359375 -11.09375 147.523438 -8.460938 145.234375 -6.171875 C 142.953125 -3.890625 140.285156 -2.097656 137.234375 -0.796875 C 134.191406 0.492188 130.914062 1.140625 127.40625 1.140625 C 121.613281 1.140625 116.769531 -0.378906 112.875 -3.421875 C 108.988281 -6.472656 105.289062 -11.890625 101.78125 -19.671875 Z M 86.46875 -55.578125 L 78.6875 -74.5625 L 70 -55.578125 Z M 24.46875 -34.765625 L 64.734375 -121.453125 C 65.492188 -122.828125 65.945312 -123.859375 66.09375 -124.546875 C 66.25 -125.234375 66.328125 -125.804688 66.328125 -126.265625 C 66.328125 -127.179688 65.984375 -127.976562 65.296875 -128.65625 C 64.617188 -129.34375 63.664062 -129.6875 62.4375 -129.6875 C 61.53125 -129.6875 60.734375 -129.378906 60.046875 -128.765625 C 59.359375 -128.160156 58.632812 -126.945312 57.875 -125.125 L 18.296875 -40.484375 C 16.160156 -35.609375 14.710938 -32.101562 13.953125 -29.96875 C 13.191406 -27.832031 12.8125 -25.847656 12.8125 -24.015625 C 12.8125 -22.035156 13.226562 -20.050781 14.0625 -18.0625 C 14.90625 -16.082031 15.972656 -14.328125 17.265625 -12.796875 C 18.566406 -11.273438 20.054688 -10.054688 21.734375 -9.140625 C 23.410156 -8.234375 25.085938 -7.78125 26.765625 -7.78125 C 29.816406 -7.78125 31.34375 -9.226562 31.34375 -12.125 C 31.34375 -13.957031 30.117188 -15.253906 27.671875 -16.015625 C 25.535156 -16.617188 23.859375 -17.644531 22.640625 -19.09375 C 21.421875 -20.539062 20.8125 -22.332031 20.8125 -24.46875 C 20.8125 -26.144531 21.648438 -28.890625 23.328125 -32.703125 Z M 102.25 -59.25 L 90.578125 -86.234375 C 89.660156 -88.367188 88.9375 -89.78125 88.40625 -90.46875 C 87.875 -91.15625 87.070312 -91.5 86 -91.5 C 84.9375 -91.5 84.019531 -91.113281 83.25 -90.34375 C 82.488281 -89.582031 82.109375 -88.671875 82.109375 -87.609375 C 82.109375 -87.148438 82.222656 -86.5 82.453125 -85.65625 C 82.679688 -84.820312 83.023438 -84.023438 83.484375 -83.265625 L 95.375 -56.265625 C 96.289062 -54.128906 97.050781 -52.753906 97.65625 -52.140625 C 98.269531 -51.535156 99.113281 -51.234375 100.1875 -51.234375 C 102.625 -51.234375 103.84375 -52.378906 103.84375 -54.671875 C 103.84375 -55.585938 103.613281 -56.5 103.15625 -57.40625 Z M 92.859375 -28.359375 L 96.296875 -28.359375 C 98.734375 -28.359375 100.675781 -28.28125 102.125 -28.125 C 103.570312 -27.976562 104.753906 -27.675781 105.671875 -27.21875 C 106.585938 -26.757812 107.390625 -26.070312 108.078125 -25.15625 C 108.765625 -24.238281 109.488281 -23.019531 110.25 -21.5 C 112.082031 -17.988281 113.414062 -15.625 114.25 -14.40625 C 115.09375 -13.1875 116.046875 -12.046875 117.109375 -10.984375 C 119.546875 -8.691406 122.441406 -7.546875 125.796875 -7.546875 C 129.003906 -7.546875 130.609375 -8.992188 130.609375 -11.890625 C 130.609375 -14.023438 129.3125 -15.320312 126.71875 -15.78125 C 124.582031 -16.082031 123.09375 -16.578125 122.25 -17.265625 C 121.414062 -17.953125 120.390625 -19.441406 119.171875 -21.734375 C 117.492188 -24.929688 116.046875 -27.484375 114.828125 -29.390625 C 113.609375 -31.296875 112.234375 -32.742188 110.703125 -33.734375 C 109.179688 -34.722656 107.351562 -35.367188 105.21875 -35.671875 C 103.082031 -35.984375 100.414062 -36.140625 97.21875 -36.140625 L 58.328125 -36.140625 C 55.429688 -36.140625 53.523438 -35.867188 52.609375 -35.328125 C 51.691406 -34.796875 51.234375 -33.691406 51.234375 -32.015625 C 51.234375 -29.578125 52.679688 -28.359375 55.578125 -28.359375 Z M 68.625 -140.90625 C 67.40625 -140.90625 66.335938 -140.445312 65.421875 -139.53125 C 64.503906 -138.613281 64.046875 -137.546875 64.046875 -136.328125 C 64.046875 -135.109375 64.503906 -134.039062 65.421875 -133.125 C 66.335938 -132.207031 67.40625 -131.75 68.625 -131.75 C 69.84375 -131.75 70.90625 -132.207031 71.8125 -133.125 C 72.726562 -134.039062 73.1875 -135.109375 73.1875 -136.328125 C 73.1875 -137.546875 72.726562 -138.613281 71.8125 -139.53125 C 70.90625 -140.445312 69.84375 -140.90625 68.625 -140.90625 Z M 68.625 -140.90625 "/></g></g></g><g fill="#f4b557" fill-opacity="1"><g transform="translate(191.500209, 188.704966)"><g><path d="M 11.890625 -122.375 C 11.890625 -127.707031 12.191406 -131.820312 12.796875 -134.71875 C 13.410156 -137.625 14.632812 -140.367188 16.46875 -142.953125 C 18.601562 -146.304688 21.5 -148.9375 25.15625 -150.84375 C 28.820312 -152.75 32.789062 -153.703125 37.0625 -153.703125 C 41.476562 -153.703125 45.628906 -152.597656 49.515625 -150.390625 C 53.410156 -148.179688 56.425781 -145.171875 58.5625 -141.359375 C 59.925781 -138.921875 60.875 -136.363281 61.40625 -133.6875 C 61.945312 -131.019531 62.21875 -127.25 62.21875 -122.375 L 62.21875 -30.1875 C 62.21875 -24.851562 61.875 -20.738281 61.1875 -17.84375 C 60.5 -14.945312 59.316406 -12.203125 57.640625 -9.609375 C 55.347656 -6.097656 52.375 -3.425781 48.71875 -1.59375 C 45.0625 0.226562 41.175781 1.140625 37.0625 1.140625 C 32.476562 1.140625 28.242188 0.0703125 24.359375 -2.0625 C 20.472656 -4.195312 17.460938 -7.171875 15.328125 -10.984375 C 13.953125 -13.578125 13.035156 -16.207031 12.578125 -18.875 C 12.117188 -21.539062 11.890625 -25.3125 11.890625 -30.1875 Z M 28.140625 -132.203125 C 29.359375 -132.203125 30.421875 -132.660156 31.328125 -133.578125 C 32.242188 -134.492188 32.703125 -135.5625 32.703125 -136.78125 C 32.703125 -138 32.242188 -139.066406 31.328125 -139.984375 C 30.421875 -140.898438 29.359375 -141.359375 28.140625 -141.359375 C 26.910156 -141.359375 25.835938 -140.898438 24.921875 -139.984375 C 24.015625 -139.066406 23.5625 -138 23.5625 -136.78125 C 23.5625 -135.5625 24.015625 -134.492188 24.921875 -133.578125 C 25.835938 -132.660156 26.910156 -132.203125 28.140625 -132.203125 Z M 35.90625 -15.546875 C 32.863281 -16.160156 30.84375 -17.457031 29.84375 -19.4375 C 28.851562 -21.425781 28.359375 -25.316406 28.359375 -31.109375 L 28.359375 -122.375 C 28.359375 -125.269531 28.128906 -127.175781 27.671875 -128.09375 C 27.210938 -129.007812 26.144531 -129.46875 24.46875 -129.46875 C 22.789062 -129.46875 21.722656 -129.007812 21.265625 -128.09375 C 20.816406 -127.175781 20.59375 -125.269531 20.59375 -122.375 L 20.59375 -29.734375 C 20.59375 -25.316406 20.742188 -22.039062 21.046875 -19.90625 C 21.347656 -17.769531 22.035156 -15.863281 23.109375 -14.1875 C 24.472656 -12.050781 26.257812 -10.410156 28.46875 -9.265625 C 30.6875 -8.117188 33.015625 -7.546875 35.453125 -7.546875 C 38.960938 -7.546875 40.71875 -8.992188 40.71875 -11.890625 C 40.71875 -13.878906 39.800781 -15.023438 37.96875 -15.328125 Z M 35.90625 -15.546875 "/></g></g></g><path stroke-linecap="butt" transform="matrix(0.969646, 0, 0, 0.969646, -18.386927, 66.92663)" fill="none" stroke-linejoin="miter" d="M 49.196639 28.146472 C 49.196639 24.158226 53.696508 21.958648 61.979169 21.958648 C 69.089526 21.958648 73.589396 23.54589 78.62506 28.146472 C 79.571765 28.988435 80.824638 28.988435 81.666601 28.045759 L 86.16647 23.235693 C 86.883549 22.293016 86.883549 21.24157 86.065757 20.399607 C 80.284815 15.158488 71.184363 11.911491 61.137206 11.911491 C 43.319012 11.911491 29.819403 22.059362 29.819403 35.482428 C 29.920116 58.723025 70.032203 59.363561 70.136944 72.552973 C 70.136944 76.416334 66.58378 78.615913 58.732172 78.615913 C 49.937889 78.615913 43.113556 75.904711 38.202777 70.151968 C 37.360814 69.205263 36.313396 68.975637 35.261949 69.716887 L 30.76208 72.758428 C 29.819403 73.499678 29.509206 74.651838 30.355198 75.598543 C 36.84919 84.1632 47.101802 88.787954 58.732172 88.787954 C 76.526195 88.787954 89.413467 78.205002 89.413467 64.705394 C 89.413467 40.828289 49.095925 39.881584 49.196639 28.146472 Z M 90.658283 86.999286 C 91.500246 86.999286 92.346237 86.487663 92.652406 85.540958 L 97.994238 69.410719 C 98.300407 68.564727 99.146398 67.95239 99.988361 67.95239 L 119.035257 67.95239 C 119.981962 67.95239 120.823925 68.564727 121.02938 69.410719 L 126.375241 85.540958 C 126.68141 86.487663 127.523373 86.999286 128.369364 86.999286 L 144.475433 86.999286 C 146.2641 86.999286 147.00535 85.851155 146.469555 84.1632 L 122.282254 15.057774 C 121.976085 14.211783 121.134122 13.700159 120.288131 13.700159 L 108.246851 13.700159 C 107.404887 13.700159 106.587096 14.211783 106.252728 15.057774 L 82.065426 84.1632 C 81.557831 85.851155 82.270881 86.999286 84.059549 86.999286 Z M 116.529511 55.782197 C 117.041134 57.470152 116.328084 58.51757 114.535388 58.51757 L 104.592973 58.51757 C 102.800276 58.51757 101.982484 57.470152 102.59885 55.782197 L 107.529772 40.598663 C 108.681932 36.940756 110.341687 36.940756 111.493847 40.598663 Z M 143.867124 13.700159 C 142.614251 13.700159 141.768259 14.546151 141.768259 15.799024 L 141.768259 84.90445 C 141.768259 86.157323 142.614251 86.999286 143.867124 86.999286 L 149.926035 86.999286 C 151.178909 86.999286 152.020872 86.157323 152.020872 84.90445 L 152.020872 43.334035 C 152.020872 38.834166 153.608113 38.399085 155.908404 42.282589 L 182.190543 85.951868 C 182.597424 86.592405 183.237961 86.999286 183.955039 86.999286 L 198.526237 86.999286 C 199.77911 86.999286 200.625102 86.157323 200.625102 84.90445 L 200.625102 15.799024 C 200.625102 14.546151 199.77911 13.700159 198.526237 13.700159 L 192.443155 13.700159 C 191.190281 13.700159 190.34429 14.546151 190.34429 15.799024 L 190.34429 52.764827 C 190.34429 57.264697 188.785248 57.675607 186.484957 53.816274 L 163.014734 14.747577 C 162.607852 14.111069 161.862574 13.700159 161.250237 13.700159 Z M 199.678397 84.90445 C 199.678397 86.157323 200.496189 86.999286 201.777262 86.999286 L 227.213408 86.999286 C 247.847546 86.999286 263.236535 71.304128 263.236535 50.029454 C 263.236535 29.093177 248.153714 13.700159 227.213408 13.700159 L 201.777262 13.700159 C 200.496189 13.700159 199.678397 14.546151 199.678397 15.799024 Z M 219.031461 25.205645 C 219.031461 23.952771 219.877453 23.110808 221.130326 23.110808 L 227.112695 23.110808 C 235.496069 23.110808 241.865177 34.946633 241.865177 50.339651 C 241.865177 65.752812 235.496069 77.564466 227.112695 77.564466 L 221.130326 77.564466 C 219.877453 77.564466 219.031461 76.746674 219.031461 75.46963 Z M 278.943779 14.953032 C 278.63761 14.211783 277.896361 13.700159 277.054398 13.700159 L 259.771998 13.700159 C 257.802046 13.700159 257.060797 14.852319 257.802046 16.616816 L 276.438032 59.25882 C 276.542774 59.569017 276.643487 59.875185 276.643487 60.076612 L 276.643487 84.90445 C 276.643487 86.157323 277.489479 86.999286 278.742352 86.999286 L 293.925887 86.999286 C 295.17876 86.999286 296.024751 86.157323 296.024751 84.90445 L 296.024751 58.622312 C 296.024751 58.316143 296.125465 57.881062 296.230207 57.675607 L 316.630689 16.7417 C 317.577394 14.953032 316.860315 13.700159 314.866192 13.700159 L 308.066032 13.700159 C 307.22004 13.700159 306.47879 14.211783 306.071909 14.852319 L 293.390092 41.235171 C 292.237932 43.740917 290.67889 43.640204 289.631472 41.029716 Z M 278.943779 14.953032 " stroke="#0b8aa6" stroke-width="13.482958" stroke-opacity="1" stroke-miterlimit="4"/><g fill="#5ce1e6" fill-opacity="1"><g transform="translate(7.278396, 151.285848)"><g><path d="M 22.035156 -57.066406 C 22.035156 -60.925781 26.402344 -63.058594 34.421875 -63.058594 C 41.328125 -63.058594 45.695312 -61.535156 50.566406 -57.066406 C 51.480469 -56.253906 52.699219 -56.253906 53.511719 -57.167969 L 57.878906 -61.839844 C 58.589844 -62.753906 58.589844 -63.769531 57.777344 -64.582031 C 52.191406 -69.65625 43.359375 -72.804688 33.609375 -72.804688 C 16.347656 -72.804688 3.25 -62.957031 3.25 -49.957031 C 3.351562 -27.417969 42.242188 -26.808594 42.34375 -14.011719 C 42.34375 -10.253906 38.890625 -8.125 31.273438 -8.125 C 22.746094 -8.125 16.144531 -10.761719 11.371094 -16.347656 C 10.558594 -17.261719 9.542969 -17.464844 8.53125 -16.753906 L 4.164062 -13.808594 C 3.25 -13.097656 2.945312 -11.980469 3.757812 -11.066406 C 10.050781 -2.742188 20.003906 1.726562 31.273438 1.726562 C 48.535156 1.726562 61.027344 -8.53125 61.027344 -21.628906 C 61.027344 -44.78125 21.933594 -45.695312 22.035156 -57.066406 Z M 22.035156 -57.066406 "/></g></g></g><g fill="#5ce1e6" fill-opacity="1"><g transform="translate(57.74337, 151.285848)"><g><path d="M 11.777344 0 C 12.589844 0 13.402344 -0.507812 13.707031 -1.421875 L 18.886719 -17.058594 C 19.191406 -17.871094 20.003906 -18.480469 20.816406 -18.480469 L 39.296875 -18.480469 C 40.210938 -18.480469 41.023438 -17.871094 41.226562 -17.058594 L 46.40625 -1.421875 C 46.710938 -0.507812 47.519531 0 48.332031 0 L 63.972656 0 C 65.695312 0 66.40625 -1.117188 65.898438 -2.742188 L 42.445312 -69.757812 C 42.140625 -70.570312 41.328125 -71.078125 40.515625 -71.078125 L 28.835938 -71.078125 C 28.027344 -71.078125 27.214844 -70.570312 26.910156 -69.757812 L 3.453125 -2.742188 C 2.945312 -1.117188 3.65625 0 5.382812 0 Z M 36.859375 -30.257812 C 37.367188 -28.632812 36.65625 -27.621094 34.929688 -27.621094 L 25.285156 -27.621094 C 23.558594 -27.621094 22.746094 -28.632812 23.355469 -30.257812 L 28.128906 -44.984375 C 29.242188 -48.535156 30.867188 -48.535156 31.984375 -44.984375 Z M 36.859375 -30.257812 "/></g></g></g><g fill="#5ce1e6" fill-opacity="1"><g transform="translate(112.980719, 151.285848)"><g><path d="M 8.125 -71.078125 C 6.90625 -71.078125 6.09375 -70.265625 6.09375 -69.046875 L 6.09375 -2.03125 C 6.09375 -0.8125 6.90625 0 8.125 0 L 14.011719 0 C 15.230469 0 16.042969 -0.8125 16.042969 -2.03125 L 16.042969 -42.34375 C 16.042969 -46.710938 17.566406 -47.113281 19.800781 -43.359375 L 45.289062 -1.015625 C 45.695312 -0.40625 46.304688 0 47.011719 0 L 61.128906 0 C 62.347656 0 63.160156 -0.8125 63.160156 -2.03125 L 63.160156 -69.046875 C 63.160156 -70.265625 62.347656 -71.078125 61.128906 -71.078125 L 55.238281 -71.078125 C 54.019531 -71.078125 53.207031 -70.265625 53.207031 -69.046875 L 53.207031 -33.203125 C 53.207031 -28.835938 51.683594 -28.429688 49.449219 -32.1875 L 26.707031 -70.0625 C 26.300781 -70.671875 25.589844 -71.078125 24.980469 -71.078125 Z M 8.125 -71.078125 "/></g></g></g><g fill="#5ce1e6" fill-opacity="1"><g transform="translate(168.116533, 151.285848)"><g><path d="M 7.109375 -2.03125 C 7.109375 -0.8125 7.921875 0 9.140625 0 L 33.8125 0 C 53.816406 0 68.742188 -15.230469 68.742188 -35.84375 C 68.742188 -56.152344 54.121094 -71.078125 33.8125 -71.078125 L 9.140625 -71.078125 C 7.921875 -71.078125 7.109375 -70.265625 7.109375 -69.046875 Z M 25.894531 -59.910156 C 25.894531 -61.128906 26.707031 -61.941406 27.925781 -61.941406 L 33.710938 -61.941406 C 41.835938 -61.941406 48.027344 -50.464844 48.027344 -35.539062 C 48.027344 -20.613281 41.835938 -9.140625 33.710938 -9.140625 L 27.925781 -9.140625 C 26.707031 -9.140625 25.894531 -9.949219 25.894531 -11.167969 Z M 25.894531 -59.910156 "/></g></g></g><g fill="#5ce1e6" fill-opacity="1"><g transform="translate(227.82165, 151.285848)"><g><path d="M 24.269531 -69.859375 C 23.964844 -70.570312 23.253906 -71.078125 22.441406 -71.078125 L 5.6875 -71.078125 C 3.757812 -71.078125 3.046875 -69.960938 3.757812 -68.234375 L 21.832031 -26.910156 C 21.933594 -26.605469 22.035156 -26.300781 22.035156 -26.097656 L 22.035156 -2.03125 C 22.035156 -0.8125 22.847656 0 24.066406 0 L 38.789062 0 C 40.007812 0 40.820312 -0.8125 40.820312 -2.03125 L 40.820312 -27.519531 C 40.820312 -27.824219 40.921875 -28.226562 41.023438 -28.429688 L 60.824219 -68.132812 C 61.738281 -69.859375 61.027344 -71.078125 59.097656 -71.078125 L 52.496094 -71.078125 C 51.683594 -71.078125 50.972656 -70.570312 50.566406 -69.960938 L 38.28125 -44.375 C 37.164062 -41.9375 35.640625 -42.039062 34.625 -44.578125 Z M 24.269531 -69.859375 "/></g></g></g></svg>